<svg xmlns="http://www.w3.org/2000/svg" id="Layer_1" data-name="Layer 1" viewBox="0 0 768 306.92" data-google-analytics-opt-out=""><defs><style>.cls-1{fill:#fff;}</style></defs><title>ACAL Logo white</title><path class="cls-1" d="M180,177.08h-26l13-85.74h.51ZM190.67,248H236.1L194.5,56.63H140.39L98.55,248h45.17l5.34-37.25h35.23ZM383.1,196.73V173.26H338.19v17.35c0,11.74-1.27,27.55-16.59,27.55-11.74,0-16.09-6.36-16.09-17.09l.27-94.68c0-12.5,3.31-20.16,17.36-19.9,8.41,0,14.28,8.42,14.28,24.75v12.24h44.92V107.41c0-39-23-55.39-61.24-55.39-41.09,0-60.25,19.41-60.25,61v78.6c0,39,16.09,61,57.43,61,45.94,0,64.82-23,64.82-55.89m106.18-19.65h-26l13-85.74h.5ZM500,248h45.42L503.82,56.63h-54.1L407.87,248h45.18l5.35-37.25h35.22Zm169.46,0V209.75H614.59V56.63H569.68V248Z"/><polygon class="cls-1" points="750.45 289.37 17.55 289.37 17.55 17.55 750.45 17.55 750.45 0 17.55 0 0 0 0 17.55 0 289.37 0 306.92 17.55 306.92 750.45 306.92 768 306.92 768 289.37 768 17.55 750.45 17.55 750.45 289.37"/></svg>